<svg id="logo-8" xmlns="http://www.w3.org/2000/svg" viewBox="0 0 140 30"><defs><style>.cls-1{fill:#fff;}</style></defs><title>logoipsum-white</title><path class="cls-1" d="M22.42,13.37a3.6,3.6,0,0,0-.85,1.35,3.69,3.69,0,0,0-.2,1.58l0,0a4.35,4.35,0,0,1-.24,1.86,4.36,4.36,0,0,1-2.59,2.59,4.54,4.54,0,0,1-1.86.25h0A3.67,3.67,0,0,0,13,23.09a3.7,3.7,0,0,0,.73,4.17,3.68,3.68,0,0,0,2,1,3.7,3.7,0,0,0,3.82-1.8A3.65,3.65,0,0,0,20,24.31l0,0a4.37,4.37,0,0,1,.25-1.86,4.27,4.27,0,0,1,1-1.58,4.37,4.37,0,0,1,1.58-1,4.3,4.3,0,0,1,1.85-.24l0,0a3.75,3.75,0,0,0,1.81-.3,3.56,3.56,0,0,0,1.43-1.12,3.66,3.66,0,0,0,.54-3.49,3.64,3.64,0,0,0-1-1.51,3.55,3.55,0,0,0-1.63-.82,3.67,3.67,0,0,0-3.39,1Z"/><path class="cls-1" d="M15,18.64l0,0a3.73,3.73,0,0,0,1.59-.19,3.73,3.73,0,0,0,2.2-2.2A3.73,3.73,0,0,0,19,14.64l0,0a4.37,4.37,0,0,1,.25-1.86,4.27,4.27,0,0,1,1-1.58,4.22,4.22,0,0,1,1.58-1A4.16,4.16,0,0,1,23.71,10l0,0a3.68,3.68,0,0,0,2.95-6.26,3.67,3.67,0,0,0-6.26,2.94l0,0a4.35,4.35,0,0,1-.25,1.86,4.4,4.4,0,0,1-1,1.58,4.35,4.35,0,0,1-3.44,1.26l0,0a3.55,3.55,0,0,0-1.58.19,3.6,3.6,0,0,0-2.2,2.2,3.67,3.67,0,0,0-.2,1.58v0a4.51,4.51,0,0,1-.25,1.86,4.36,4.36,0,0,1-2.59,2.59A4.51,4.51,0,0,1,7,20H7a3.67,3.67,0,0,0-3.67,2.1A3.68,3.68,0,0,0,6,27.28a3.62,3.62,0,0,0,2.2-.3,3.59,3.59,0,0,0,1.63-1.5,3.65,3.65,0,0,0,.47-2.17l0,0a4.22,4.22,0,0,1,.25-1.86,4.38,4.38,0,0,1,1-1.58,4.54,4.54,0,0,1,1.58-1A4.37,4.37,0,0,1,15,18.64Z"/><path class="cls-1" d="M8.34,16.63a3.6,3.6,0,0,0,.85-1.35,3.71,3.71,0,0,0,.2-1.58v0a4.51,4.51,0,0,1,.25-1.86,4.36,4.36,0,0,1,2.59-2.59A4.54,4.54,0,0,1,14.1,9h0a3.67,3.67,0,0,0,3.67-2.1,3.68,3.68,0,1,0-7-1.22l0,0A4.29,4.29,0,0,1,9.49,9.11a4.54,4.54,0,0,1-1.58,1,4.37,4.37,0,0,1-1.86.24l0,0a3.69,3.69,0,0,0-1.8.3A3.59,3.59,0,0,0,2.83,11.8a3.68,3.68,0,0,0,.49,5,3.69,3.69,0,0,0,3.45.76,3.54,3.54,0,0,0,1.57-.93Z"/><path class="cls-1" d="M39.32,6.66h3V21.11h-3Z"/><path class="cls-1" d="M44,16.16a5.21,5.21,0,0,1,.87-2.92,5.25,5.25,0,1,1,7.29,7.26,5.22,5.22,0,0,1-2.91.89,5.38,5.38,0,0,1-2-.39,5.23,5.23,0,0,1-2.84-2.83A5.14,5.14,0,0,1,44,16.16Zm7.52,0A2.27,2.27,0,0,0,48.73,14a2.3,2.3,0,0,0-1.15.63A2.27,2.27,0,0,0,47,15.8a2.18,2.18,0,0,0,.14,1.31,2.28,2.28,0,0,0,2.1,1.39,2.26,2.26,0,0,0,.89-.16,2.31,2.31,0,0,0,.76-.51,2.27,2.27,0,0,0,.62-1.67Z"/><path class="cls-1" d="M66.3,11.21v9.4c0,3.32-2.59,4.73-5.23,4.73a5.06,5.06,0,0,1-4.69-2.4l2.54-1.46a2.23,2.23,0,0,0,.93,1,2.17,2.17,0,0,0,1.32.27,2,2,0,0,0,.88-.07,2,2,0,0,0,1.24-1.18,2.11,2.11,0,0,0,.12-.87v-.9a3.57,3.57,0,0,1-1.29,1,3.68,3.68,0,0,1-1.6.3,5,5,0,0,1,0-10.06,3.54,3.54,0,0,1,1.6.3,3.47,3.47,0,0,1,1.29,1v-1ZM63.41,16a2.34,2.34,0,0,0-.36-1.36,2.37,2.37,0,0,0-1-.93,2.38,2.38,0,0,0-2.65.46,2.35,2.35,0,0,0-.68,1.23,2.32,2.32,0,0,0,.12,1.4A2.39,2.39,0,0,0,61,18.26a2.19,2.19,0,0,0,.92-.13,2.15,2.15,0,0,0,.79-.49,2.1,2.1,0,0,0,.52-.77A2.2,2.2,0,0,0,63.41,16Z"/><path class="cls-1" d="M68,16.16a5.25,5.25,0,0,1,10.39-1.05,5.15,5.15,0,0,1-.29,3A5.27,5.27,0,0,1,71.22,21a5.15,5.15,0,0,1-1.71-1.13,5,5,0,0,1-1.14-1.7A5.33,5.33,0,0,1,68,16.16Zm7.53,0a2.34,2.34,0,0,0-.42-1.25A2.26,2.26,0,0,0,72.75,14,2.27,2.27,0,0,0,71,15.8a2.35,2.35,0,0,0,.14,1.31,2.29,2.29,0,0,0,.84,1,2.25,2.25,0,0,0,1.26.38,2.31,2.31,0,0,0,.9-.16,2.27,2.27,0,0,0,.75-.51,2.23,2.23,0,0,0,.63-1.67Z"/><path class="cls-1" d="M79.86,8.56a1.8,1.8,0,0,1,.3-1,1.77,1.77,0,0,1,.8-.66,1.73,1.73,0,0,1,1-.1,1.8,1.8,0,0,1,1.4,1.4A1.77,1.77,0,0,1,82.63,10a1.8,1.8,0,0,1-1,.3,1.81,1.81,0,0,1-1.78-1.78Zm.3,2.65h3v9.9h-3Z"/><path class="cls-1" d="M96,16.16a5.29,5.29,0,0,1-.28,1.93,5.09,5.09,0,0,1-1,1.67,5,5,0,0,1-1.57,1.16,5.31,5.31,0,0,1-1.89.47,3.7,3.7,0,0,1-1.61-.28,3.77,3.77,0,0,1-1.33-.93v4.89h-3V11.21h3v.93a3.66,3.66,0,0,1,2.94-1.21,4.92,4.92,0,0,1,1.89.47A5,5,0,0,1,96,16.16Zm-3,0A2.39,2.39,0,0,0,91.49,14a2.51,2.51,0,0,0-1.36-.11,2.43,2.43,0,0,0-1.19.66,2.39,2.39,0,0,0-.48,2.56,2.34,2.34,0,0,0,.87,1.05,2.31,2.31,0,0,0,1.3.39,2.21,2.21,0,0,0,1.72-.68,2.21,2.21,0,0,0,.5-.8A2.24,2.24,0,0,0,93,16.16Z"/><path class="cls-1" d="M105.12,18.14c0,2.28-2,3.25-4.12,3.25a4.41,4.41,0,0,1-2.49-.53A4.31,4.31,0,0,1,96.75,19l2.57-1.47a1.67,1.67,0,0,0,.63.89,1.64,1.64,0,0,0,1,.28c.71,0,1.07-.22,1.07-.61,0-1.09-4.87-.52-4.87-3.94,0-2.16,1.82-3.25,3.88-3.25a4.31,4.31,0,0,1,3.86,2.12l-2.54,1.37a1.43,1.43,0,0,0-.53-.64,1.38,1.38,0,0,0-.79-.23c-.52,0-.83.19-.83.55C100.25,15.23,105.12,14.48,105.12,18.14Z"/><path class="cls-1" d="M116,11.21v9.9h-3v-.93a3.38,3.38,0,0,1-1.27.94,3.48,3.48,0,0,1-1.56.27c-2,0-3.7-1.43-3.7-4.1V11.21h3v5.64a1.65,1.65,0,0,0,.08.7,1.75,1.75,0,0,0,.36.6,1.79,1.79,0,0,0,.59.39,1.5,1.5,0,0,0,.69.11c1.09,0,1.84-.63,1.84-2v-5.4Z"/><path class="cls-1" d="M133,15v6.08h-3V15.29c0-1-.48-1.63-1.43-1.63s-1.54.7-1.54,1.86v5.59h-3V15.29c0-1-.47-1.63-1.42-1.63s-1.55.7-1.55,1.86v5.59h-3v-9.9h3v.91a2.9,2.9,0,0,1,1.18-.93,3.94,3.94,0,0,1,2.94.05,2.94,2.94,0,0,1,1.13,1,3.23,3.23,0,0,1,1.26-1,3.43,3.43,0,0,1,1.61-.28C131.51,10.93,133,12.56,133,15Z"/><path class="cls-1" d="M135.51,11.15a2.21,2.21,0,1,0-2.2-2.21A2.21,2.21,0,0,0,135.51,11.15Z"/></svg>